# xmcd CD database file generated by Grip 2.96
# 
# Track frame offsets:
#       200
#       19410
#       45535
#       62065
#       81620
#       100370
#       119719
# 
# Disc length: 1754 seconds
# 
# Revision: 0
# Processed by: cddbd v1.5PL3 Copyright (c) Steve Scherf et al.
# Submitted via: Grip 2.96
# 
DISCID=6406d807
DTITLE=okakita_ayu - Panda
DYEAR=1900
DGENRE=
TTITLE0=watashi
TTITLE1=haiiro_rabusongu
TTITLE2=a strange guy w/honest eyes
TTITLE3=saite
TTITLE4=matugega_yureru
TTITLE5=itsunohinika
TTITLE6=a little crime
EXTD=
EXTT0=
EXTT1=
EXTT2=
EXTT3=
EXTT4=
EXTT5=
EXTT6=
PLAYORDER=
